<svg xmlns="http://www.w3.org/2000/svg" xmlns:xlink="http://www.w3.org/1999/xlink" version="1.1" x="0px" y="0px" viewBox="0 0 100 125" style="enable-background:new 0 0 100 100;" xml:space="preserve"><style type="text/css">
	.st0{fill-rule:evenodd;clip-rule:evenodd;}
</style><path class="st0" d="M46.21,17.804c-5.42,18.87-17.181,30.631-36.05,36.05c18.869,5.419,30.631,17.181,36.05,36.05  c5.419-18.868,17.182-30.631,36.05-36.05C63.392,48.436,51.629,36.673,46.21,17.804L46.21,17.804z M77.741,10.095  c2.688,5.364,6.734,9.411,12.099,12.099c-5.365,2.688-9.411,6.734-12.099,12.099c-2.691-5.368-6.73-9.41-12.099-12.099  C71.01,19.503,75.052,15.463,77.741,10.095z"/><text x="0" y="115" fill="#000000" font-size="5px" font-weight="bold" font-family="'Helvetica Neue', Helvetica, Arial-Unicode, Arial, Sans-serif">Created by Sri Utami</text><text x="0" y="120" fill="#000000" font-size="5px" font-weight="bold" font-family="'Helvetica Neue', Helvetica, Arial-Unicode, Arial, Sans-serif">from the Noun Project</text></svg>