<svg xmlns="http://www.w3.org/2000/svg" xmlns:xlink="http://www.w3.org/1999/xlink" version="1.1" width="256" height="256" viewBox="0 0 256 256" xml:space="preserve">

<defs>
</defs>
<g style="stroke: none; stroke-width: 0; stroke-dasharray: none; stroke-linecap: butt; stroke-linejoin: miter; stroke-miterlimit: 10; fill: none; fill-rule: nonzero; opacity: 1;" transform="translate(1.4065934065934016 1.4065934065934016) scale(2.81 2.81)" >
	<path d="M 75.323 54.908 c -0.833 0 -1.679 -0.203 -2.46 -0.631 c -1.436 -0.785 -2.42 -2.225 -2.631 -3.85 c -0.071 -0.548 0.314 -1.049 0.862 -1.12 c 0.548 -0.075 1.049 0.314 1.12 0.862 c 0.13 0.993 0.731 1.873 1.608 2.354 c 1.521 0.831 3.434 0.272 4.267 -1.249 c 0.831 -1.52 0.271 -3.434 -1.249 -4.266 l -3.96 -2.273 c -1.188 -0.649 -2.063 -1.739 -2.449 -3.057 s -0.235 -2.708 0.425 -3.913 c 0.659 -1.205 1.748 -2.081 3.066 -2.467 c 1.319 -0.387 2.709 -0.235 3.913 0.424 c 1.436 0.786 2.42 2.226 2.631 3.851 c 0.071 0.547 -0.314 1.049 -0.862 1.121 c -0.551 0.07 -1.049 -0.315 -1.12 -0.863 c -0.13 -0.993 -0.731 -1.873 -1.609 -2.354 c -0.736 -0.403 -1.583 -0.496 -2.391 -0.259 c -0.806 0.236 -1.471 0.771 -1.874 1.507 c -0.403 0.737 -0.495 1.586 -0.26 2.392 c 0.236 0.806 0.771 1.471 1.509 1.874 l 3.96 2.274 c 2.469 1.352 3.386 4.482 2.024 6.97 C 78.91 53.941 77.144 54.908 75.323 54.908 z" style="stroke: none; stroke-width: 1; stroke-dasharray: none; stroke-linecap: butt; stroke-linejoin: miter; stroke-miterlimit: 10; fill: rgb(0,0,0); fill-rule: nonzero; opacity: 1;" transform=" matrix(1 0 0 1 0 0) " stroke-linecap="round" />
	<path d="M 75.35 37.09 c -0.553 0 -1 -0.448 -1 -1 v -2.773 c 0 -0.552 0.447 -1 1 -1 s 1 0.448 1 1 v 2.773 C 76.35 36.643 75.902 37.09 75.35 37.09 z" style="stroke: none; stroke-width: 1; stroke-dasharray: none; stroke-linecap: butt; stroke-linejoin: miter; stroke-miterlimit: 10; fill: rgb(0,0,0); fill-rule: nonzero; opacity: 1;" transform=" matrix(1 0 0 1 0 0) " stroke-linecap="round" />
	<path d="M 75.35 57.683 c -0.553 0 -1 -0.447 -1 -1 v -2.773 c 0 -0.553 0.447 -1 1 -1 s 1 0.447 1 1 v 2.773 C 76.35 57.235 75.902 57.683 75.35 57.683 z" style="stroke: none; stroke-width: 1; stroke-dasharray: none; stroke-linecap: butt; stroke-linejoin: miter; stroke-miterlimit: 10; fill: rgb(0,0,0); fill-rule: nonzero; opacity: 1;" transform=" matrix(1 0 0 1 0 0) " stroke-linecap="round" />
	<path d="M 66.414 90 H 19.459 c -5.479 0 -9.936 -4.457 -9.936 -9.936 V 9.936 C 9.524 4.457 13.981 0 19.459 0 h 46.955 c 5.479 0 9.936 4.457 9.936 9.936 v 15.051 c 0 0.552 -0.447 1 -1 1 s -1 -0.448 -1 -1 V 9.936 C 74.35 5.56 70.79 2 66.414 2 H 19.459 c -4.375 0 -7.936 3.56 -7.936 7.936 v 70.129 c 0 4.376 3.56 7.936 7.936 7.936 h 46.955 c 4.376 0 7.936 -3.56 7.936 -7.936 V 65.014 c 0 -0.553 0.447 -1 1 -1 s 1 0.447 1 1 v 15.051 C 76.35 85.543 71.893 90 66.414 90 z" style="stroke: none; stroke-width: 1; stroke-dasharray: none; stroke-linecap: butt; stroke-linejoin: miter; stroke-miterlimit: 10; fill: rgb(0,0,0); fill-rule: nonzero; opacity: 1;" transform=" matrix(1 0 0 1 0 0) " stroke-linecap="round" />
	<path d="M 60.85 65.53 H 32.792 c -0.552 0 -1 -0.447 -1 -1 s 0.448 -1 1 -1 H 60.85 c 0.553 0 1 0.447 1 1 S 61.402 65.53 60.85 65.53 z" style="stroke: none; stroke-width: 1; stroke-dasharray: none; stroke-linecap: butt; stroke-linejoin: miter; stroke-miterlimit: 10; fill: rgb(0,0,0); fill-rule: nonzero; opacity: 1;" transform=" matrix(1 0 0 1 0 0) " stroke-linecap="round" />
	<path d="M 60.85 53.325 H 32.792 c -0.552 0 -1 -0.447 -1 -1 s 0.448 -1 1 -1 H 60.85 c 0.553 0 1 0.447 1 1 S 61.402 53.325 60.85 53.325 z" style="stroke: none; stroke-width: 1; stroke-dasharray: none; stroke-linecap: butt; stroke-linejoin: miter; stroke-miterlimit: 10; fill: rgb(0,0,0); fill-rule: nonzero; opacity: 1;" transform=" matrix(1 0 0 1 0 0) " stroke-linecap="round" />
	<path d="M 60.85 41.12 H 32.792 c -0.552 0 -1 -0.448 -1 -1 s 0.448 -1 1 -1 H 60.85 c 0.553 0 1 0.448 1 1 S 61.402 41.12 60.85 41.12 z" style="stroke: none; stroke-width: 1; stroke-dasharray: none; stroke-linecap: butt; stroke-linejoin: miter; stroke-miterlimit: 10; fill: rgb(0,0,0); fill-rule: nonzero; opacity: 1;" transform=" matrix(1 0 0 1 0 0) " stroke-linecap="round" />
	<path d="M 60.85 28.915 H 32.792 c -0.552 0 -1 -0.448 -1 -1 s 0.448 -1 1 -1 H 60.85 c 0.553 0 1 0.448 1 1 S 61.402 28.915 60.85 28.915 z" style="stroke: none; stroke-width: 1; stroke-dasharray: none; stroke-linecap: butt; stroke-linejoin: miter; stroke-miterlimit: 10; fill: rgb(0,0,0); fill-rule: nonzero; opacity: 1;" transform=" matrix(1 0 0 1 0 0) " stroke-linecap="round" />
	<path d="M 26.453 65.53 h -1.429 c -0.552 0 -1 -0.447 -1 -1 s 0.448 -1 1 -1 h 1.429 c 0.552 0 1 0.447 1 1 S 27.005 65.53 26.453 65.53 z" style="stroke: none; stroke-width: 1; stroke-dasharray: none; stroke-linecap: butt; stroke-linejoin: miter; stroke-miterlimit: 10; fill: rgb(0,0,0); fill-rule: nonzero; opacity: 1;" transform=" matrix(1 0 0 1 0 0) " stroke-linecap="round" />
	<path d="M 26.453 53.325 h -1.429 c -0.552 0 -1 -0.447 -1 -1 s 0.448 -1 1 -1 h 1.429 c 0.552 0 1 0.447 1 1 S 27.005 53.325 26.453 53.325 z" style="stroke: none; stroke-width: 1; stroke-dasharray: none; stroke-linecap: butt; stroke-linejoin: miter; stroke-miterlimit: 10; fill: rgb(0,0,0); fill-rule: nonzero; opacity: 1;" transform=" matrix(1 0 0 1 0 0) " stroke-linecap="round" />
	<path d="M 26.453 41.12 h -1.429 c -0.552 0 -1 -0.448 -1 -1 s 0.448 -1 1 -1 h 1.429 c 0.552 0 1 0.448 1 1 S 27.005 41.12 26.453 41.12 z" style="stroke: none; stroke-width: 1; stroke-dasharray: none; stroke-linecap: butt; stroke-linejoin: miter; stroke-miterlimit: 10; fill: rgb(0,0,0); fill-rule: nonzero; opacity: 1;" transform=" matrix(1 0 0 1 0 0) " stroke-linecap="round" />
	<path d="M 26.453 28.915 h -1.429 c -0.552 0 -1 -0.448 -1 -1 s 0.448 -1 1 -1 h 1.429 c 0.552 0 1 0.448 1 1 S 27.005 28.915 26.453 28.915 z" style="stroke: none; stroke-width: 1; stroke-dasharray: none; stroke-linecap: butt; stroke-linejoin: miter; stroke-miterlimit: 10; fill: rgb(0,0,0); fill-rule: nonzero; opacity: 1;" transform=" matrix(1 0 0 1 0 0) " stroke-linecap="round" />
</g>
</svg>