<svg xmlns="http://www.w3.org/2000/svg" viewBox="0 0 24 30" x="0px" y="0px"><path d="m21.75,13c0-1.517-1.233-2.75-2.75-2.75h-5.419l.087-1.118c.034-.485-.138-.969-.471-1.325-.331-.354-.796-.557-1.277-.557h-2.094l.737-3.307c.025-.112.125-.193.238-.193h2.2c.414,0,.75-.336.75-.75s-.336-.75-.75-.75h-2.2c-.81,0-1.526.575-1.702,1.367l-.809,3.633h-4.209c-.481,0-.947.203-1.277.557-.333.356-.504.84-.47,1.332l.779,10.068c.109,1.426,1.312,2.543,2.738,2.543h4.3c.508,0,.995-.146,1.421-.412.418.256.904.412,1.429.412h6c1.517,0,2.75-1.233,2.75-2.75v-1c0-.79-.339-1.498-.874-2,.535-.502.874-1.21.874-2v-1ZM3.923,10.25l-.095-1.222c-.007-.099.042-.166.071-.198.028-.029.089-.08.181-.08h7.84c.092,0,.153.051.181.08.03.032.078.1.072.191l-.094,1.229H3.923Zm1.927,10c-.658,0-1.192-.497-1.243-1.157l-.569-7.343h6.526c-.194.377-.315.798-.315,1.25v1c0,.79.339,1.498.874,2-.535.502-.874,1.21-.874,2v1c0,.426.106.825.279,1.185-.121.041-.248.065-.379.065h-4.3Zm14.4-1.25c0,.689-.561,1.25-1.25,1.25h-6c-.689,0-1.25-.561-1.25-1.25v-1c0-.689.561-1.25,1.25-1.25h6c.689,0,1.25.561,1.25,1.25v1Zm0-5c0,.689-.561,1.25-1.25,1.25h-6c-.689,0-1.25-.561-1.25-1.25v-1c0-.689.561-1.25,1.25-1.25h6c.689,0,1.25.561,1.25,1.25v1Z"/><text x="0" y="39" fill="#000000" font-size="5px" font-weight="bold" font-family="'Helvetica Neue', Helvetica, Arial-Unicode, Arial, Sans-serif">Created by Saepul Nahwan</text><text x="0" y="44" fill="#000000" font-size="5px" font-weight="bold" font-family="'Helvetica Neue', Helvetica, Arial-Unicode, Arial, Sans-serif">from the Noun Project</text></svg>