<svg xmlns="http://www.w3.org/2000/svg" xmlns:xlink="http://www.w3.org/1999/xlink" version="1.1" width="256" height="256" viewBox="0 0 256 256" xml:space="preserve">

<defs>
</defs>
<g style="stroke: none; stroke-width: 0; stroke-dasharray: none; stroke-linecap: butt; stroke-linejoin: miter; stroke-miterlimit: 10; fill: none; fill-rule: nonzero; opacity: 1;" transform="translate(1.4065934065934016 1.4065934065934016) scale(2.81 2.81)" >
	<path d="M 89 35.872 H 1 c -0.552 0 -1 -0.448 -1 -1 V 18.608 c 0 -0.552 0.448 -1 1 -1 h 88 c 0.553 0 1 0.448 1 1 v 16.264 C 90 35.424 89.553 35.872 89 35.872 z M 2 33.872 h 86 V 19.608 H 2 V 33.872 z" style="stroke: none; stroke-width: 1; stroke-dasharray: none; stroke-linecap: butt; stroke-linejoin: miter; stroke-miterlimit: 10; fill: rgb(0,0,0); fill-rule: nonzero; opacity: 1;" transform=" matrix(1 0 0 1 0 0) " stroke-linecap="round" />
	<path d="M 82.712 86.786 H 7.288 c -0.552 0 -1 -0.447 -1 -1 V 34.872 c 0 -0.552 0.448 -1 1 -1 h 75.424 c 0.553 0 1 0.448 1 1 v 50.914 C 83.712 86.339 83.265 86.786 82.712 86.786 z M 8.288 84.786 h 73.424 V 35.872 H 8.288 V 84.786 z" style="stroke: none; stroke-width: 1; stroke-dasharray: none; stroke-linecap: butt; stroke-linejoin: miter; stroke-miterlimit: 10; fill: rgb(0,0,0); fill-rule: nonzero; opacity: 1;" transform=" matrix(1 0 0 1 0 0) " stroke-linecap="round" />
	<path d="M 64.497 19.608 H 45 c -0.419 0 -0.793 -0.261 -0.938 -0.654 c -0.145 -0.393 -0.03 -0.835 0.289 -1.107 L 59.179 5.188 c 2.46 -2.101 5.812 -2.562 8.748 -1.208 c 2.937 1.354 4.761 4.204 4.761 7.438 C 72.688 15.934 69.014 19.608 64.497 19.608 z M 47.712 17.608 h 16.785 c 3.413 0 6.19 -2.777 6.19 -6.19 c 0 -2.444 -1.379 -4.598 -3.599 -5.622 c -2.217 -1.022 -4.75 -0.674 -6.611 0.914 L 47.712 17.608 z" style="stroke: none; stroke-width: 1; stroke-dasharray: none; stroke-linecap: butt; stroke-linejoin: miter; stroke-miterlimit: 10; fill: rgb(0,0,0); fill-rule: nonzero; opacity: 1;" transform=" matrix(1 0 0 1 0 0) " stroke-linecap="round" />
	<path d="M 45 19.608 H 25.503 c -4.516 0 -8.19 -3.674 -8.19 -8.19 c 0 -3.234 1.824 -6.083 4.76 -7.438 c 2.936 -1.354 6.289 -0.892 8.749 1.208 l 14.828 12.659 c 0.318 0.272 0.434 0.714 0.289 1.107 C 45.793 19.347 45.419 19.608 45 19.608 z M 25.521 5.217 c -0.879 0 -1.768 0.19 -2.61 0.579 c -2.219 1.023 -3.598 3.178 -3.598 5.622 c 0 3.414 2.777 6.19 6.19 6.19 h 16.785 L 29.523 6.71 C 28.37 5.726 26.958 5.217 25.521 5.217 z" style="stroke: none; stroke-width: 1; stroke-dasharray: none; stroke-linecap: butt; stroke-linejoin: miter; stroke-miterlimit: 10; fill: rgb(0,0,0); fill-rule: nonzero; opacity: 1;" transform=" matrix(1 0 0 1 0 0) " stroke-linecap="round" />
	<path d="M 45 86.786 c -0.552 0 -1 -0.447 -1 -1 v -67.76 c 0 -0.552 0.448 -1 1 -1 s 1 0.448 1 1 v 67.76 C 46 86.339 45.552 86.786 45 86.786 z" style="stroke: none; stroke-width: 1; stroke-dasharray: none; stroke-linecap: butt; stroke-linejoin: miter; stroke-miterlimit: 10; fill: rgb(0,0,0); fill-rule: nonzero; opacity: 1;" transform=" matrix(1 0 0 1 0 0) " stroke-linecap="round" />
</g>
</svg>