<svg xmlns="http://www.w3.org/2000/svg" version="1.1" viewBox="-5.0 -10.0 110.0 135.0">
 <g>
  <path d="m97 34.59c-0.03125-0.14453-0.078125-0.28516-0.14062-0.41797l-8.8984-17.789v-0.003906c-1.0078-2.0781-3.1211-3.3906-5.4297-3.3789h-10.531v-4c0-3.3125-2.6875-6-6-6h-32c-3.3125 0-6 2.6875-6 6v4h-10.531c-2.2695 0.003906-4.3438 1.2891-5.3594 3.3203l-8.8984 17.789c-0.0625 0.13672-0.10938 0.27734-0.14063 0.42188-0.039062 0.15234-0.0625 0.30859-0.070312 0.46875v6c0.003906 3.7188 1.8828 7.1836 5 9.2109v36.789c0 2.6523 1.0547 5.1953 2.9297 7.0703s4.418 2.9297 7.0703 2.9297h64c2.6523 0 5.1953-1.0547 7.0703-2.9297s2.9297-4.418 2.9297-7.0703v-36.789c3.1172-2.0273 4.9961-5.4922 5-9.2109v-6c0.011719-0.13672 0.011719-0.27344 0-0.41016zm-65-25.59c0-1.1055 0.89453-2 2-2h32c0.53125 0 1.0391 0.21094 1.4141 0.58594s0.58594 0.88281 0.58594 1.4141v4h-36zm-16.32 9.1016c0.33984-0.67578 1.0352-1.1016 1.7891-1.1016h65.062c0.75781 0 1.4492 0.42969 1.7891 1.1094l7.4414 14.891h-83.523zm59.32 22.898c0 3.8672-3.1328 7-7 7s-7-3.1328-7-7v-4h14zm-18 0c0 3.8672-3.1328 7-7 7s-7-3.1328-7-7v-4h14zm-18 0c0 3.8672-3.1328 7-7 7s-7-3.1328-7-7v-4h14zm-32-4h14v4c0 3.8672-3.1328 7-7 7s-7-3.1328-7-7zm15 56v-31h16v31zm66-6c0 3.3125-2.6875 6-6 6h-40v-33c0-0.53125-0.21094-1.0391-0.58594-1.4141s-0.88281-0.58594-1.4141-0.58594h-20c-1.1055 0-2 0.89453-2 2v33c-3.3125 0-6-2.6875-6-6v-35.191c4.2344 0.80469 8.5469-0.96484 11-4.5078 2.0586 2.9297 5.418 4.6758 9 4.6758s6.9414-1.7461 9-4.6758c2.0586 2.9297 5.418 4.6758 9 4.6758s6.9414-1.7461 9-4.6758c2.0586 2.9297 5.418 4.6758 9 4.6758s6.9414-1.7461 9-4.6758c2.4531 3.543 6.7656 5.3125 11 4.5078zm5-46c0 3.8672-3.1328 7-7 7s-7-3.1328-7-7v-4h14z"/>
  <path d="m80 58h-25c-1.1055 0-2 0.89453-2 2v20c0 0.53125 0.21094 1.0391 0.58594 1.4141s0.88281 0.58594 1.4141 0.58594h25c0.53125 0 1.0391-0.21094 1.4141-0.58594s0.58594-0.88281 0.58594-1.4141v-20c0-0.53125-0.21094-1.0391-0.58594-1.4141s-0.88281-0.58594-1.4141-0.58594zm-2 20h-21v-16h21z"/>
 </g>
<text x="0.0" y="117.5" font-size="5.0" font-weight="bold" font-family="Arbeit Regular, Helvetica, Arial-Unicode, Arial, Sans-serif" fill="#000000">Created by Moch Rizki Eko Waluyo</text><text x="0.0" y="122.5" font-size="5.0" font-weight="bold" font-family="Arbeit Regular, Helvetica, Arial-Unicode, Arial, Sans-serif" fill="#000000">from Noun Project</text></svg>