<svg xmlns="http://www.w3.org/2000/svg" xmlns:xlink="http://www.w3.org/1999/xlink" version="1.1" width="256" height="256" viewBox="0 0 256 256" xml:space="preserve">

<defs>
</defs>
<g style="stroke: none; stroke-width: 0; stroke-dasharray: none; stroke-linecap: butt; stroke-linejoin: miter; stroke-miterlimit: 10; fill: none; fill-rule: nonzero; opacity: 1;" transform="translate(1.4065934065934016 1.4065934065934016) scale(2.81 2.81)" >
	<path d="M 81.561 17.973 H 64.144 v -4.263 c 0 -4.769 -3.88 -8.648 -8.648 -8.648 h -20.99 c -4.769 0 -8.648 3.88 -8.648 8.648 v 4.263 H 8.439 C 3.786 17.973 0 21.759 0 26.412 v 50.087 c 0 4.653 3.786 8.439 8.439 8.439 h 73.121 c 4.653 0 8.439 -3.786 8.439 -8.439 V 26.412 C 90 21.759 86.214 17.973 81.561 17.973 z M 27.856 13.709 c 0 -3.666 2.982 -6.648 6.648 -6.648 h 20.99 c 3.666 0 6.648 2.982 6.648 6.648 v 4.263 H 27.856 V 13.709 z M 88 76.499 c 0 3.551 -2.889 6.439 -6.439 6.439 H 8.439 C 4.889 82.938 2 80.05 2 76.499 V 26.412 c 0 -3.551 2.889 -6.439 6.439 -6.439 h 18.417 h 36.287 h 18.417 c 3.551 0 6.439 2.889 6.439 6.439 V 76.499 z" style="stroke: none; stroke-width: 1; stroke-dasharray: none; stroke-linecap: butt; stroke-linejoin: miter; stroke-miterlimit: 10; fill: rgb(0,0,0); fill-rule: nonzero; opacity: 1;" transform=" matrix(1 0 0 1 0 0) " stroke-linecap="round" />
	<path d="M 64 43.942 H 52.515 V 32.456 c 0 -0.552 -0.447 -1 -1 -1 H 38.486 c -0.552 0 -1 0.448 -1 1 v 11.486 H 26 c -0.552 0 -1 0.448 -1 1 v 13.029 c 0 0.553 0.448 1 1 1 h 11.486 v 11.485 c 0 0.553 0.448 1 1 1 h 13.029 c 0.553 0 1 -0.447 1 -1 V 58.971 H 64 c 0.553 0 1 -0.447 1 -1 V 44.942 C 65 44.39 64.553 43.942 64 43.942 z M 63 56.971 H 51.515 c -0.553 0 -1 0.447 -1 1 v 11.485 H 39.486 V 57.971 c 0 -0.553 -0.448 -1 -1 -1 H 27 V 45.942 h 11.486 c 0.552 0 1 -0.448 1 -1 V 33.456 h 11.029 v 11.486 c 0 0.552 0.447 1 1 1 H 63 V 56.971 z" style="stroke: none; stroke-width: 1; stroke-dasharray: none; stroke-linecap: butt; stroke-linejoin: miter; stroke-miterlimit: 10; fill: rgb(0,0,0); fill-rule: nonzero; opacity: 1;" transform=" matrix(1 0 0 1 0 0) " stroke-linecap="round" />
</g>
</svg>