<svg xmlns="http://www.w3.org/2000/svg" xmlns:xlink="http://www.w3.org/1999/xlink" version="1.1" width="256" height="256" viewBox="0 0 256 256" xml:space="preserve">

<defs>
</defs>
<g style="stroke: none; stroke-width: 0; stroke-dasharray: none; stroke-linecap: butt; stroke-linejoin: miter; stroke-miterlimit: 10; fill: none; fill-rule: nonzero; opacity: 1;" transform="translate(1.4065934065934016 1.4065934065934016) scale(2.81 2.81)" >
	<path d="M 89.1 69.647 c -0.768 -2.505 -3.292 -4.057 -5.864 -3.59 c -3.919 0.697 -8.239 1.834 -12.813 3.037 c -2.373 0.624 -4.812 1.262 -7.231 1.844 c -0.88 -3.998 -4.373 -6.987 -8.557 -7.128 l -1.886 -0.063 c -2.909 0 -6.067 -1.12 -9.123 -2.203 c -3.038 -1.077 -6.18 -2.19 -9.096 -2.19 c -4.362 0 -9.621 0.699 -15.555 5.883 c -0.486 0.426 -1.1 0.65 -1.687 0.652 l -1.295 -0.059 v -3.368 c 0 -0.553 -0.448 -1 -1 -1 H 1.672 c -0.552 0 -1 0.447 -1 1 V 89 c 0 0.553 0.448 1 1 1 h 13.321 c 0.552 0 1 -0.447 1 -1 v -3.865 h 4.726 c 1.584 0 3.173 0.175 4.721 0.52 l 14.181 3.162 c 1.27 0.284 2.574 0.428 3.881 0.428 c 0.084 0 0.168 -0.001 0.253 -0.002 l 7.849 -0.114 c 2.341 -0.034 4.619 -0.521 6.766 -1.443 l 27.817 -11.747 C 88.624 74.889 89.876 72.185 89.1 69.647 z M 13.993 88 H 2.672 V 63.462 h 11.321 V 88 z M 85.402 74.098 L 57.586 85.845 c -1.911 0.821 -3.934 1.253 -6.012 1.283 l -7.848 0.114 c -1.226 0.014 -2.47 -0.109 -3.669 -0.377 l -14.182 -3.162 c -1.691 -0.377 -3.426 -0.568 -5.156 -0.568 h -4.726 V 67.831 l 1.242 0.056 c 1.126 -0.013 2.2 -0.398 3.056 -1.146 c 5.436 -4.748 10.249 -5.389 14.239 -5.389 c 2.572 0 5.417 1.008 8.428 2.076 c 3.213 1.139 6.536 2.317 9.754 2.316 c 0.001 0 0.002 0 0.002 0 l 1.852 0.063 c 3.273 0.111 6.003 2.454 6.68 5.584 c -8.328 1.886 -16.122 2.802 -19.718 -0.497 c -0.407 -0.373 -1.04 -0.345 -1.413 0.062 c -0.374 0.407 -0.346 1.039 0.061 1.413 c 5.714 5.242 18.443 1.896 30.755 -1.343 c 4.533 -1.192 8.815 -2.318 12.654 -3.002 c 1.587 -0.278 3.131 0.667 3.603 2.207 C 87.665 71.793 86.895 73.455 85.402 74.098 z" style="stroke: none; stroke-width: 1; stroke-dasharray: none; stroke-linecap: butt; stroke-linejoin: miter; stroke-miterlimit: 10; fill: rgb(0,0,0); fill-rule: nonzero; opacity: 1;" transform=" matrix(1 0 0 1 0 0) " stroke-linecap="round" />
	<path d="M 65.197 64.432 c -0.276 0 -0.552 -0.114 -0.749 -0.338 c -0.366 -0.414 -0.327 -1.046 0.087 -1.411 c 5.06 -4.473 7.962 -10.908 7.962 -17.657 c 0 -12.99 -10.568 -23.558 -23.559 -23.558 c -12.99 0 -23.558 10.568 -23.558 23.558 c 0 2.888 0.516 5.708 1.534 8.381 c 0.196 0.516 -0.063 1.094 -0.579 1.29 c -0.516 0.198 -1.094 -0.063 -1.291 -0.579 c -1.105 -2.9 -1.665 -5.96 -1.665 -9.092 c 0 -14.092 11.465 -25.558 25.558 -25.558 c 14.093 0 25.559 11.465 25.559 25.558 c 0 7.321 -3.148 14.303 -8.638 19.155 C 65.669 64.349 65.433 64.432 65.197 64.432 z" style="stroke: none; stroke-width: 1; stroke-dasharray: none; stroke-linecap: butt; stroke-linejoin: miter; stroke-miterlimit: 10; fill: rgb(0,0,0); fill-rule: nonzero; opacity: 1;" transform=" matrix(1 0 0 1 0 0) " stroke-linecap="round" />
	<path d="M 50.565 44.557 l -2.629 -0.96 c -1.262 -0.371 -2.249 -1.286 -2.708 -2.51 c -0.801 -2.136 0.285 -4.526 2.42 -5.327 c 2.14 -0.802 4.526 0.286 5.327 2.421 c 0.194 0.518 0.774 0.777 1.287 0.585 c 0.518 -0.194 0.779 -0.771 0.586 -1.288 c -0.818 -2.181 -2.75 -3.624 -4.911 -3.924 v -1.924 c 0 -0.552 -0.447 -1 -1 -1 s -1 0.448 -1 1 v 1.984 c -0.332 0.064 -0.664 0.15 -0.991 0.272 c -3.168 1.188 -4.779 4.733 -3.591 7.902 c 0.682 1.819 2.146 3.178 3.956 3.707 l 2.629 0.961 c 1.262 0.37 2.249 1.284 2.708 2.509 c 0.801 2.137 -0.285 4.526 -2.422 5.327 c -1.034 0.389 -2.159 0.35 -3.164 -0.107 c -1.006 -0.457 -1.774 -1.278 -2.162 -2.313 c -0.194 -0.517 -0.77 -0.775 -1.288 -0.585 c -0.517 0.194 -0.779 0.771 -0.585 1.288 c 0.576 1.534 1.715 2.753 3.208 3.432 c 0.549 0.249 1.122 0.407 1.703 0.488 v 1.927 c 0 0.553 0.447 1 1 1 s 1 -0.447 1 -1 v -1.982 c 0.334 -0.065 0.665 -0.152 0.99 -0.274 c 3.169 -1.188 4.78 -4.732 3.593 -7.901 C 53.84 46.444 52.375 45.086 50.565 44.557 z" style="stroke: none; stroke-width: 1; stroke-dasharray: none; stroke-linecap: butt; stroke-linejoin: miter; stroke-miterlimit: 10; fill: rgb(0,0,0); fill-rule: nonzero; opacity: 1;" transform=" matrix(1 0 0 1 0 0) " stroke-linecap="round" />
	<path d="M 48.938 15.141 c -0.553 0 -1 -0.448 -1 -1 V 1 c 0 -0.552 0.447 -1 1 -1 s 1 0.448 1 1 v 13.141 C 49.938 14.693 49.491 15.141 48.938 15.141 z" style="stroke: none; stroke-width: 1; stroke-dasharray: none; stroke-linecap: butt; stroke-linejoin: miter; stroke-miterlimit: 10; fill: rgb(0,0,0); fill-rule: nonzero; opacity: 1;" transform=" matrix(1 0 0 1 0 0) " stroke-linecap="round" />
	<path d="M 29.245 20.065 c -0.552 0 -1 -0.448 -1 -1 V 8.878 c 0 -0.552 0.448 -1 1 -1 s 1 0.448 1 1 v 10.187 C 30.245 19.617 29.797 20.065 29.245 20.065 z" style="stroke: none; stroke-width: 1; stroke-dasharray: none; stroke-linecap: butt; stroke-linejoin: miter; stroke-miterlimit: 10; fill: rgb(0,0,0); fill-rule: nonzero; opacity: 1;" transform=" matrix(1 0 0 1 0 0) " stroke-linecap="round" />
	<path d="M 68.633 20.065 c -0.553 0 -1 -0.448 -1 -1 V 8.878 c 0 -0.552 0.447 -1 1 -1 s 1 0.448 1 1 v 10.187 C 69.633 19.617 69.186 20.065 68.633 20.065 z" style="stroke: none; stroke-width: 1; stroke-dasharray: none; stroke-linecap: butt; stroke-linejoin: miter; stroke-miterlimit: 10; fill: rgb(0,0,0); fill-rule: nonzero; opacity: 1;" transform=" matrix(1 0 0 1 0 0) " stroke-linecap="round" />
</g>
</svg>