<svg xmlns="http://www.w3.org/2000/svg" version="1.1" viewBox="-5.0 -10.0 110.0 135.0">
 <g>
  <path d="m78.789 13.621c-1.1016 0-2 0.89844-2 2v10.988h-8.6211l0.003906-10.988c0-1.1016-0.89844-2-2-2s-2 0.89844-2 2v10.988h-8.6211v-10.988c0-1.1016-0.89844-2-2-2-1.1016 0-2 0.89844-2 2v19.328c0 6.3008 5.1289 11.43 11.43 11.43h1.1797v39.48c0 1.1016 0.89844 2 2 2 1.1016 0 2-0.89844 2-2v-39.48h1.1797c6.3008 0 11.43-5.1289 11.43-11.43v-19.328c0.019531-1.1016-0.87891-2-1.9805-2zm-2 21.32c0 4.1016-3.3281 7.4297-7.4297 7.4297h-6.3711c-4.1016 0-7.4297-3.3281-7.4297-7.4297v-4.3398h21.23z"/>
  <path d="m33.461 12.141c-7.8516 0-14.25 6.3906-14.25 14.238v6.9609c0 7.1719 5.3398 13.109 12.25 14.09v38.43c0 1.1016 0.89844 2 2 2 1.1016 0 2-0.89844 2-2v-38.43c6.9102-0.98047 12.25-6.9102 12.25-14.09v-6.9609c-0.011719-7.8477-6.4023-14.238-14.25-14.238zm10.238 21.199c0 5.6484-4.6016 10.238-10.25 10.238-5.6484 0-10.25-4.6016-10.25-10.238v-6.9609c0-5.6484 4.6016-10.238 10.25-10.238 5.6484 0 10.25 4.6016 10.25 10.238z"/>
 </g>
<text x="0.0" y="117.5" font-size="5.0" font-weight="bold" font-family="Arbeit Regular, Helvetica, Arial-Unicode, Arial, Sans-serif" fill="#000000">Created by Mamank</text><text x="0.0" y="122.5" font-size="5.0" font-weight="bold" font-family="Arbeit Regular, Helvetica, Arial-Unicode, Arial, Sans-serif" fill="#000000">from Noun Project</text></svg>